<svg xml:space="preserve" style="enable-background:new 0 0 2000 649.89;" viewBox="0 0 2000 649.89" y="0px" x="0px" xmlns:xlink="http://www.w3.org/1999/xlink" xmlns="http://www.w3.org/2000/svg" id="Layer_1" version="1.1">
<style type="text/css">
	.st0{fill:#E22130;}
	.st1{fill:#231F20;}
</style>
<g>
	<polygon points="295.03,85.85 248.75,228.05 97.86,228.05 219.67,315.99 173.93,458.9 295.03,370.96 416.66,458.9 
		370.39,315.99 491.49,228.05 341.31,228.05" class="st0"></polygon>
	<g>
		<path d="M914.9,215.46c-9.22-9.22-19.15-15.96-31.74-19.86c-11.88-4.61-25.89-6.56-40.96-6.56
			c-15.25,0-29.08,2.66-43.09,8.69c-13.83,6.03-25.18,14.54-34.4,23.76L764,222.2c-4.61,5.32-8.69,10.64-11.88,16.49
			c-2.66,5.32-5.32,9.93-6.56,13.83c-1.24-2.66-3.37-7.27-6.03-11.88c-4.61-8.69-8.69-15.25-11.88-17.91
			c-9.22-10.64-19.86-17.91-33.69-23.76c-13.83-6.03-28.37-8.69-45.04-8.69c-10.64,0-25.89,1.24-42.38,9.22
			c-19.15,9.22-35.11,23.76-46.28,45.04v-47.52h-15.25v265.25h15.25V311.38c0-17.2,1.95-31.74,6.03-45.04
			c3.9-13.3,9.93-23.23,17.91-33.16c6.56-9.22,16.49-16.49,27.84-21.1c11.17-5.32,23.23-7.98,35.64-7.27
			c15.25,0.71,28.37,3.37,40.43,8.69c11.17,5.32,20.57,13.3,28.37,22.52c6.56,9.22,11.17,17.2,13.83,26.42
			c3.9,11.17,5.32,24.47,5.32,43.09v156.21h15.25V312.27c0-18.44,0.71-33.69,3.9-46.28c3.37-11.88,7.98-21.1,17.2-33.16
			c7.98-10.64,17.91-17.91,31.74-23.23c11.17-3.9,23.76-6.56,35.64-6.56c13.3,0,24.47,1.95,35.11,6.03s18.44,9.93,25.89,17.2
			c9.22,9.22,15.96,20.57,19.86,35.11c4.61,14.54,6.56,31.03,6.56,51.6v148.76h15.25l2.66-149.47c0-21.81-2.66-40.96-7.98-56.92
			C932.1,239.4,925.36,225.39,914.9,215.46z" class="st1"></path>
		<path d="M1215.79,264.4c-7.98-18.44-23.23-37.06-43.09-50.36c-23.23-15.96-50.89-23.76-79.97-23.76
			c-52.84,0-85.28,23.76-103.9,44.33c-22.52,25.18-35.64,59.58-35.64,94.68c0,35.11,13.3,69.5,35.64,94.68
			c17.91,19.86,50.89,44.33,103.9,44.33c27.13,0,51.6-6.56,73.41-19.15c20.57-13.3,37.06-30.5,49.65-53.55v66.84h15.25V197.73
			h-15.25L1215.79,264.4L1215.79,264.4z M1207.28,279.64c2.66,7.27,5.32,14.54,6.56,21.81c1.95,7.98,2.66,16.49,2.66,23.76
			c0.71,8.69,0,16.49-1.24,23.76c-1.24,8.69-3.37,15.96-6.03,22.52c-8.69,24.47-23.76,45.57-44.33,59.58
			c-19.86,14.54-45.04,21.81-70.75,21.81c-38.3,0-70.04-13.83-93.26-39.01c-19.86-22.52-32.45-53.55-32.45-85.99
			c0-35.11,13.3-66.14,35.64-89.36c23.23-22.52,54.26-35.64,88.65-35.64c25.18,0,49.65,7.27,69.5,19.86
			C1182.81,237.98,1198.59,257.13,1207.28,279.64z M1217.91,274.33L1217.91,274.33L1217.91,274.33L1217.91,274.33z" class="st1"></path>
		<path d="M1289.37,237.27c13.83-12.59,27.84-20.57,41.67-26.42c13.83-5.32,29.08-8.69,47.7-8.69h1.24
			c22.52,0,45.57,6.56,64.89,17.91c22.52,14.54,39.72,34.4,48.94,59.58l0.71,1.24h17.2l-1.24-2.66
			c-10.64-29.79-30.5-54.26-56.92-70.04c-21.81-13.3-48.23-19.86-74.11-19.86c-38.3,0-73.41,14.54-99.29,40.43
			c-25.89,25.89-40.43,61.53-40.43,99.82c0,35.64,13.83,70.04,36.35,95.21c25.89,28.37,62.23,43.62,105.85,43.62
			c28.37,0,56.21-8.69,78.72-24.47c22.52-15.78,39.72-37.77,49.65-64.19l1.24-2.66h-17.2l-0.71,1.24
			c-6.56,19.15-20.57,37.77-39.01,50.89c-21.1,16.49-48.23,24.47-76.06,24.47c-16.49,0-32.45-3.37-47.7-9.22
			c-15.25-6.56-27.84-15.25-39.72-25.89c-11.88-11.88-20.57-25.18-27.13-40.96c-6.56-15.25-9.93-32.45-9.93-49.65
			c0-17.2,3.9-35.11,9.93-50.89C1269.51,261.2,1278.73,247.91,1289.37,237.27z M1467.92,236.03c11.88,11.17,21.81,25.89,28.37,43.09
			l0,0C1489.73,262.45,1479.8,248.62,1467.92,236.03z" class="st1"></path>
		<path d="M1725.9,196.31h-17.2l-0.71,1.24c0,1.24-25.89,61.53-51.6,122.34l-50.89,119.68l-48.23-119.68
			c-31.03-79.43-48.94-121.81-48.94-122.34l-0.71-1.24h-17.2l105.85,264.01l-47.7,107.09h17.2l0.71-1.24c0,0,1.24-3.37,3.37-8.69
			c7.98-18.44,29.79-69.5,54.97-126.95c6.56-15.25,13.3-31.03,20.57-46.99l62.23-143.62c10.64-24.47,17.2-40.43,17.2-40.96
			L1725.9,196.31z" class="st1"></path>
		<path d="M1845.05,333.19c-14.54-10.64-32.45-15.96-50.36-19.86l-1.95-0.71c-20.57-6.03-33.69-11.88-42.38-18.44
			c-9.93-8.69-15.25-19.15-15.96-35.11c0-7.27,0.71-14.54,3.37-20.57c1.95-6.56,6.03-11.88,10.64-17.2
			c5.32-6.03,11.88-9.93,18.44-13.3c7.98-3.37,15.96-4.61,24.47-4.61h1.24c7.98,0,15.25,1.24,21.1,3.9
			c6.56,2.66,12.59,6.56,17.2,11.17s8.69,10.64,11.17,17.2c2.66,6.56,3.9,13.83,3.9,21.81v1.95h15.25v-1.6
			c0-19.15-7.27-36.35-19.15-48.94c-12.59-12.59-29.79-18.44-50.89-18.44c-18.44,0-36.35,6.03-49.65,16.49
			c-15.25,12.59-22.52,30.5-22.52,52.31c0.71,20.57,7.98,35.64,21.1,46.99c13.83,11.17,32.45,17.2,50.89,21.81
			c22.52,5.32,38.3,12.59,48.23,21.81c10.64,10.64,15.25,23.23,15.96,40.96v1.95c0,8.69-1.24,17.2-4.61,23.76
			c-3.37,7.27-7.27,13.83-13.3,19.15c-5.32,6.03-12.59,10.64-19.86,13.83c-7.98,3.37-16.49,4.61-25.18,4.61
			c-19.15,0-36.35-6.03-48.23-17.2c-11.88-11.88-17.91-27.84-18.44-46.99v-1.95l-15.25,0.71v3.37c0,0.71,0,1.24,0,1.95
			c0,9.22,1.95,17.91,5.32,26.42c3.37,8.69,7.98,16.49,14.54,22.52c7.98,7.98,17.2,14.54,27.84,18.44
			c10.64,3.9,21.81,6.56,34.4,6.56c11.17,0,21.81-2.66,31.74-6.56c9.93-4.61,18.44-10.64,25.89-17.91
			c6.56-7.27,12.59-15.96,15.96-25.18c3.9-9.22,5.32-19.15,4.61-29.79C1869.52,362.98,1860.83,345.25,1845.05,333.19z" class="st1"></path>
		<polygon points="1717.21,176.45 1735.12,163.86 1753.03,176.45 1745.76,155.35 1764.2,142.05 1742.39,142.05 
			1735.12,121.49 1728.56,142.05 1706.75,142.05 1723.95,155.35" class="st1"></polygon>
	</g>
</g>
</svg>
