<svg xml:space="preserve" style="enable-background:new 0 0 2000 477.45;" viewBox="0 0 2000 477.45" y="0px" x="0px" xmlns:xlink="http://www.w3.org/1999/xlink" xmlns="http://www.w3.org/2000/svg" id="Layer_1" version="1.1">
<style type="text/css">
	.st0{fill:#FFFFFF;}
	.st1{fill:#D52B1E;}
	.st2{fill:#F37100;}
</style>
<g>
	<path d="M547.58,127.2c30.08-21.55,66.73-24.53,84.72-24.53c55.88,0,93.56,24.49,91.95,62.05h162.4l15.85-26.87h107.07
		l-16.11,27.27h36.94l-4.43,7.53c21.37-12.36,42.72-18.09,66.96-17.45c55.38,1.43,82.17,45.66,58.96,107.49
		c-1.04,2.71-2.09,5.4-3.16,8.04l114.33-81h-79.04l50.85-86.15h235.35L1433.98,165c16.7-6.86,29.39-9.2,47.47-9.2
		c60.37,0,72.19,45.21,69.75,70.48l36.13-61.07h86.28c58.89-11.14,71.51,35.19,72.18,37.39c28.3-31.58,64.62-48.78,103.31-46.8
		c29.53,1.54,98.5,19.52,38.92,141.55c-18.85,38.62-62.1,87.83-129.74,84.15c-47.57-2.61-66.42-34.97-62.78-65.76l-34.66,58.87
		l-197.44-0.06l7.65-12.9c-21.09,13.79-49.84,21.68-76.62,19.79c-44.66-3.16-56.07-25.1-61.95-44.41l-22.2,37.53h-235.75l10.35-17.4
		c-23.23,16.48-50.36,24.9-80.77,23.28c-31.55-1.7-61.13-16.67-64.72-54.48l-28.69,48.58h-52.3c-37.45,0-50.33-33.64-52.42-40.25
		c-27.69,41.68-78.32,46.38-99.26,46.38c-63.77,0-78.71-32.96-80.6-37.43l-18.49,31.23H399.45l-0.03,0.04H30.19l157.19-268.05
		h372.63l-12.44,20.76v-0.02H547.58z" class="st0"></path>
	<path d="M1921.33,127.26v-9.45h6.52c3.34,0,6.83,0.64,6.83,4.47c0,4.7-3.62,4.98-7.66,4.98h-5.67L1921.33,127.26
		L1921.33,127.26z M1921.33,131.1h5.5l8.28,13.38h5.28l-8.92-13.59c4.59-0.42,8.14-2.91,8.14-8.31c0-6.14-3.62-8.77-11.04-8.77
		h-11.81v30.67h4.58L1921.33,131.1L1921.33,131.1z M1905.18,129.05c0-12.6,9.5-22.07,22.04-22.07c12.08,0,21.8,9.48,21.8,22.07
		c0,12.81-9.72,22.2-21.79,22.2c-12.56,0-22.04-9.39-22.04-22.2H1905.18z M1927.22,155.74c7.31,0.01,14.3-2.79,19.43-7.81
		c5.13-5.01,7.98-11.81,7.89-18.88c0-15.21-12.62-26.45-27.3-26.45c-15.02,0-27.56,11.24-27.56,26.45
		c0,15.43,12.54,26.69,27.56,26.69H1927.22z M1848.3,170.18c48.45,2.52,57.38,40.88,40.14,88.43c-3.11,8.62-6.68,17.06-10.69,25.29
		h-99.09c-6.23,15.21-8.87,29.68-0.98,31.17c8.44,1.63,17.24-6.95,26.54-20.86h68.13c-29.57,53.01-69.06,75.19-113.53,72.88
		c-52.83-2.74-56.73-42.69-39.5-90.25c24.08-66.42,73.15-109.56,128.99-106.65h-0.01V170.18z M1820.64,257.88
		c8.32-16.94,11.78-28.74,1.33-30.59c-9.9-1.76-21.47,11.12-32.75,30.59H1820.64z M1705.01,179.64
		c17.87,4.25,35.45,29.81,24.75,48.91l-77.53,131.62h-67.7l64.62-109.52c2.68-4.89,0.27-12.18-7.9-13.87
		c-9.17-1.91-15.3,6.93-19.77,14.63l-64.21,108.71h-68.22l106.86-180.5h62.08l-7.16,12.3
		C1650.82,191.93,1672.31,171.91,1705.01,179.64L1705.01,179.64z M1485.66,170.18c48.45,2.52,60.75,40.88,43.54,88.43
		c-28.56,78.77-79.63,111.25-133.02,108.47c-52.83-2.74-60.1-42.69-42.87-90.25C1377.4,210.41,1429.81,167.27,1485.66,170.18z
		 M1460.47,261.45c10.02-18.86,14.99-32.18,3.28-34.16c-12.51-2.13-27.53,17.06-41.53,43.4c-10.02,18.86-13.82,32.96-3.65,34.9
		C1432.56,308.25,1443.88,292.7,1460.47,261.45L1460.47,261.45z M1405.22,184.73l-164.41,118.43h94.59l-33.7,56.95h-201.45
		l38.28-64.35l170.09-120.49h-98.97l33.85-57.32h201.14l-39.4,66.76L1405.22,184.73z M1094.36,169.67
		c48.47,2.52,60.77,40.77,43.54,88.19c-28.53,78.56-79.62,110.95-132.99,108.17c-52.82-2.74-60.1-42.59-42.87-90.01
		C986.09,209.77,1038.54,166.76,1094.36,169.67z M1069.2,260.69c10.01-18.79,14.97-32.09,3.27-34.07
		c-12.53-2.12-27.54,17.02-41.53,43.28c-10.02,18.82-13.82,32.85-3.64,34.81C1041.27,307.36,1052.6,291.85,1069.2,260.69
		L1069.2,260.69z M937.21,231.39l-43.96,74.35c-0.63,1.27-0.33,2.68,0.21,4.06c1,2.21,3.73,1.82,6.11,1.82h31.2l-28.63,48.51h-41.35
		c-15.66,0-24.38-5.2-32.66-15.6c-11.6-14.33-12.33-30.2-4.38-44.36l87.33-147.93h72.89l-16.11,27.29h36.98l-30.54,51.85
		L937.21,231.39L937.21,231.39z M812.2,179.53h67.64l-84.52,143.58l-0.13,0.12c-25.14,41.84-78.5,44.8-103.94,41.71
		c-44.74-5.43-62.84-30.03-49.06-54.58c-0.04-0.07,77.25-130.83,77.25-130.83h67.94l-68.34,114.72c-3.24,5.71-7.93,14.08,3.3,16.21
		c8.99,1.73,14.87-1.09,20.53-11.01L812.2,179.53z M649.92,118.1c53.68,6.53,70.31,35.75,53.03,66.66L599.06,360.04h-72.95
		l31.5-53.27h-35.75l-31.47,53.27H416.9l112.77-190.85C557.29,118.09,620.28,114.49,649.92,118.1L649.92,118.1z M621.2,199.18
		c6.71-10.84,3.21-16.22-7.61-17.22c-12.91-1.19-21.12,5.19-25.37,12.44l-32.21,54.64h35.79l29.41-49.85h-0.01V199.18z" class="st1"></path>
	<path d="M513.22,118.04L370.31,360.01h17.45l142.98-241.97h-17.51L513.22,118.04L513.22,118.04z M493.82,118.04h-29.68
		L321.16,360.01h29.62l51.54-86.98L493.82,118.04z M380.63,118.04L237.62,360.01h64.06l143.16-241.97L380.63,118.04L380.63,118.04z
		 M207.01,118.04L64.03,360.01h156.1l143.06-241.97L207.01,118.04L207.01,118.04z" class="st2"></path>
</g>
</svg>
