<svg xml:space="preserve" style="enable-background:new 0 0 1903.69 428.84;" viewBox="0 0 1903.69 428.84" y="0px" x="0px" xmlns:xlink="http://www.w3.org/1999/xlink" xmlns="http://www.w3.org/2000/svg" id="Layer_1" version="1.1">
<style type="text/css">
	.st0{fill-rule:evenodd;clip-rule:evenodd;fill:#0067A0;}
</style>
<path d="M1645.42,82.36c6.79,6.82,6.79,17.9,0,24.72l-99.06,99.59l99.07,99.54c6.81,6.85,6.81,17.92,0,24.77
	l-22.26,22.38l-134.18-134.82c-6.52-6.57-6.52-17.16,0-23.73l134.13-134.85L1645.42,82.36z M1823.65,195.45
	c6.15,6.19,6.15,16.18,0,22.37l-134.8,135.53l-23.28-23.39c-6.25-6.29-6.25-16.45,0-22.74l100.05-100.58l-99.2-99.67
	c-6.73-6.78-6.73-17.73,0-24.51l22.39-22.51L1823.65,195.45z M1435.63,290.29v1.48h-4.17v10.95h-1.69v-10.95h-4.17v-1.48H1435.63
	L1435.63,290.29z M1437.12,290.29h2.4l3.56,10.5l3.54-10.51h2.38v12.43h-1.6v-7.34c0-0.26,0-0.68,0.01-1.26
	c0.01-0.59,0.02-1.22,0.02-1.89l-3.54,10.49h-1.67l-3.56-10.49v0.38c0,0.31,0.01,0.77,0.03,1.39l0.02,1.38v7.34h-1.6L1437.12,290.29
	L1437.12,290.29z M1348.99,275.34c28.24,0,47.61-22.64,47.61-52.63c0-29.66-19.37-52.31-47.61-52.31
	c-27.93,0-47.28,23.28-47.28,52.95C1301.71,252.68,1321.07,275.34,1348.99,275.34z M1356.93,305.32
	c-24.44,0-45.07-12.13-55.86-35.41v32.86h-31.73V85.55l31.73-6.38v96.65c10.79-23.29,31.42-35.41,55.86-35.41
	c40.93,0,73.62,31.58,73.62,82.62C1430.55,273.74,1397.87,305.32,1356.93,305.32L1356.93,305.32z M1104.76,236.74v-93.77h31.73
	v96.33c0,21.05,13.33,35.41,35.55,35.41c22.21,0,35.55-14.35,35.55-35.41v-96.33h31.73v93.77c0,43.7-26.98,68.26-67.28,68.26
	C1131.73,305,1104.76,280.44,1104.76,236.74z M1082.51,305c-32.69,1.28-50.77-15.95-50.77-54.54V85.55l31.73-6.38v171.29
	c0,15.31,8.25,22.32,19.67,22.32h8.25v31.26C1088.47,304.68,1085.5,305,1082.51,305L1082.51,305z M874.6,222.7
	c0-50.72,34.92-82.29,83.47-82.29c22.85,0,43.16,7.34,58.71,22.97l-19.37,23.92c-12.05-12.12-26.33-16.9-39.03-16.9
	c-29.19,0-49.83,17.54-49.83,51.99s20.63,52.63,49.83,52.63c12.69,0,26.98-5.11,39.35-17.86l19.36,23.6
	c-15.55,15.62-35.55,24.24-59.03,24.24C909.83,305,874.6,273.42,874.6,222.7L874.6,222.7z M686.11,288.1l14.28-29.03
	c10.47,7.65,29.19,16.26,43.48,16.26c17.77,0,24.76-8.61,24.76-17.86c0.32-10.84-8.57-14.99-27.29-21.05
	c-31.42-9.57-49.19-20.73-49.19-50.08c0-26.8,20.32-45.93,57.13-45.93c19.04,0,36.49,6.06,50.46,15.95l-14.28,26.48
	c-8.25-5.11-22.22-12.76-37.77-12.76c-13.64,0-21.9,5.43-21.9,15.95c0,8.61,6.03,14.36,26.03,20.41
	c33.96,10.21,50.77,22.97,50.77,49.76c0,30.3-24.43,48.8-58.39,48.8C721.01,305,698.81,297.35,686.11,288.1z M663.23,97.03h34.27
	l-19.99,62.84h-26.34L663.23,97.03z M543.87,302.45h-31.74v-96.97c0-20.1-10.47-35.41-31.73-35.41c-23.17,0-39.35,20.41-39.35,46.57
	v85.81h-31.74V142.96h31.74v28.39c9.52-20.1,26.97-31.26,47.28-31.26c21.27,0,38.72,11.16,48.24,30.29
	c13.34-21.05,31.1-30.29,52.37-30.29c33.32,0,57.75,25.2,57.75,65.7v96.66h-31.73v-96.97c0-20.1-10.47-35.41-31.74-35.41
	c-23.16,0-39.35,20.41-39.35,46.57L543.87,302.45z M299.88,170.4c-28.24,0-47.61,22.64-47.61,52.63c0,29.66,19.37,52.31,47.61,52.31
	c27.93,0,47.29-23.28,47.29-52.95C347.17,193.05,327.81,170.4,299.88,170.4z M347.81,269.91c-10.78,23.29-31.42,35.41-55.85,35.41
	c-40.94,0-73.63-31.58-73.63-82.62c0-50.72,32.69-82.29,73.63-82.29c24.43,0,45.06,12.12,55.85,35.41v-32.85h31.74v159.48h-31.74
	V269.91z M89.8,288.1l14.28-29.03c10.47,7.65,29.19,16.26,43.48,16.26c17.77,0,24.76-8.61,24.76-17.86
	c0.32-10.84-8.57-14.99-27.29-21.05c-31.43-9.57-49.21-20.73-49.21-50.08c0-26.8,20.32-45.93,57.13-45.93
	c19.04,0,36.49,6.06,50.46,15.95l-14.28,26.48c-8.25-5.11-22.22-12.76-37.77-12.76c-13.64,0-21.9,5.43-21.9,15.95
	c0,8.61,6.03,14.36,26.03,20.41c33.96,10.21,50.77,22.97,50.77,49.76c0,30.3-24.43,48.8-58.39,48.8
	C124.7,305,102.49,297.35,89.8,288.1L89.8,288.1z" class="st0" id="path2"></path>
</svg>
