<svg xml:space="preserve" style="enable-background:new 0 0 1937.63 576.51;" viewBox="0 0 1937.63 576.51" y="0px" x="0px" xmlns:xlink="http://www.w3.org/1999/xlink" xmlns="http://www.w3.org/2000/svg" id="Layer_1" version="1.1">
<style type="text/css">
	.st0{fill:#0071CE;}
	.st1{fill:#FFC220;}
</style>
<g>
	<path d="M1120.49,302.61c0-42.53-18.21-80.11-79.78-80.11c-31.59,0-56.69,9-70.29,16.89l9.97,34.12
		c12.53-7.86,32.52-14.33,51.38-14.33c31.17-0.04,36.28,17.59,36.28,28.93v2.73c-68.05-0.11-111.06,23.4-111.06,71.28
		c0,29.26,21.84,56.69,60.01,56.69c23.29,0,42.97-9.4,54.73-24.24h1.14c0,0,7.75,32.43,50.61,20.03
		c-2.18-13.58-2.99-27.89-2.99-45.28V302.61z M1069.73,347.52c0,3.43-0.29,7-1.3,10.06c-3.92,13.1-17.44,24.06-34.26,24.06
		c-14.2,0-25.34-8.04-25.34-24.88c0-25.76,28.44-32.85,60.89-32.67" class="st0"></path>
	<path d="M78.68,164.63c0,0,44.45,181.84,51.51,211.3c8.32,34.43,23.23,47.16,66.24,38.68l27.78-112.76
		c7.02-27.94,11.8-47.97,16.34-76.44h0.77c3.15,28.75,7.68,48.5,13.43,76.52c0,0,11.34,51.23,17.22,78.06
		c5.72,26.84,21.84,43.77,64.04,34.61l66.13-249.98h-53.39l-22.7,108.14c-6.01,31.33-11.47,56.01-15.72,84.71h-0.77
		c-3.83-28.4-8.7-52.07-14.95-82.75l-23.51-110.1h-55.7L190.3,271.9c-7.16,32.76-13.85,59.02-18.05,86.83h-0.73
		c-4.34-26.09-10.21-59.31-16.45-90.83c0,0-14.9-76.81-20.17-103.27" class="st0"></path>
	<path d="M550.92,302.61c0-42.53-18.25-80.11-79.83-80.11c-31.5,0-56.64,9-70.25,16.89l9.97,34.12
		c12.48-7.86,32.45-14.33,51.38-14.33c31.17-0.04,36.28,17.59,36.28,28.93v2.73c-68.05-0.11-111.11,23.4-111.11,71.28
		c0,29.26,21.93,56.69,59.92,56.69c23.51,0,43.02-9.4,54.77-24.24h1.19c0,0,7.79,32.43,50.61,20.03
		c-2.2-13.58-2.95-27.89-2.95-45.28v-66.71H550.92z M500.11,347.52c0,3.43-0.29,7-1.26,10.06c-3.96,13.1-17.48,24.06-34.34,24.06
		c-14.11,0-25.3-8.04-25.3-24.88c0-25.76,28.44-32.85,60.89-32.67" class="st0"></path>
	<polygon points="578.63,164.63 578.63,414.52 629.44,414.52 629.44,361.53 629.44,164.63" class="st0"></polygon>
	<path d="M1276.44,164.63v184.38c0,25.45,4.78,43.19,15.06,54.07c9.03,9.53,23.8,15.74,41.39,15.74
		c15.1,0,29.87-2.91,36.85-5.44l-0.62-39.69c-5.22,1.21-11.18,2.25-19.37,2.25c-17.35,0-23.07-10.99-23.07-33.84v-70.58h44.25
		v-47.75h-44.25v-59.14" class="st0"></path>
	<path d="M1145.11,226.83V414.6h52.53v-96.16c0-5.17,0.33-9.64,1.14-13.78c3.92-20.28,19.31-33.11,41.48-33.11
		c6.19,0,10.39,0.68,15.06,1.41v-49.23c-3.92-0.7-6.58-1.08-11.4-1.08c-19.66,0-41.94,12.48-51.34,39.67h-1.3v-35.49" class="st0"></path>
	<path d="M658.94,226.83V414.6h51.18V304.39c0-5.17,0.57-10.46,2.4-15.23c4.16-11.16,14.49-24.08,31.06-24.08
		c20.61,0,30.34,17.39,30.34,42.49v107.04h51.05V303.08c0-4.87,0.68-10.83,2.11-15.15c4.1-12.66,15.28-22.85,30.73-22.85
		c20.83,0,30.91,17.02,30.91,46.61v102.92h51.01V303.9c0-58.16-29.59-81.24-63.18-81.24c-14.77,0-26.53,3.63-37.1,10.15
		c-8.94,5.48-16.77,13.21-23.8,23.31h-0.77c-8.08-20.21-27.06-33.46-51.85-33.46c-31.79,0-46.23,16.05-54.73,29.61h-0.77v-25.44" class="st0"></path>
	<path d="M1645.82,218.41c10.04,0,18.49-5.24,19.59-11.98l9.95-112.72c0-11.16-13.14-20.3-29.54-20.3
		c-16.49,0-29.54,9.14-29.54,20.3l10.04,112.72C1627.37,213.17,1635.78,218.41,1645.82,218.41" class="st1"></path>
	<path d="M1584.77,253.68c4.97-8.81,4.69-18.58-0.68-22.94l-92.9-64.97c-9.66-5.64-24.13,1.08-32.41,15.3
		c-8.26,14.2-6.58,30.14,2.88,35.66l102.85,47.68c6.58,2.47,15.19-2.11,20.25-10.83" class="st1"></path>
	<path d="M1706.86,253.58c5.26,8.72,13.87,13.3,20.27,10.96l102.85-47.82c9.55-5.64,10.99-21.42,2.91-35.62
		c-8.26-14.22-22.81-20.89-32.45-15.37l-92.93,64.9c-5.15,4.42-5.53,14.24-0.55,23.03" class="st1"></path>
	<path d="M1645.82,359.2c10.04,0,18.49,5.24,19.59,11.98l9.95,112.72c0,11.16-13.14,20.21-29.54,20.21
		c-16.49,0-29.54-9.05-29.54-20.21l10.04-112.72C1627.37,364.44,1635.78,359.2,1645.82,359.2" class="st1"></path>
	<path d="M1706.86,324.03c5.26-8.74,13.87-13.41,20.27-10.88l102.85,47.73c9.55,5.53,10.99,21.44,2.91,35.66
		c-8.26,14.11-22.81,20.83-32.45,15.3l-92.93-64.99c-5.15-4.38-5.53-14.16-0.55-22.83" class="st1"></path>
	<path d="M1584.77,323.93c4.97,8.78,4.69,18.54-0.68,22.94l-92.9,64.88c-9.66,5.64-24.13-1.1-32.41-15.21
		c-8.26-14.2-6.58-30.14,2.88-35.66l102.85-47.73C1571.09,310.64,1579.7,315.26,1584.77,323.93" class="st1"></path>
	<path d="M1860.09,401.96h1.28c1.74,0,2.44,0.55,2.64,1.94c0.37,1.54,0.57,2.58,0.95,3.02h3.3
		c-0.29-0.33-0.66-1.17-0.86-3.1c-0.37-1.67-1.23-2.62-2.44-2.95v-0.31c1.67-0.37,2.64-1.5,2.64-2.88c0-1.25-0.57-2.16-1.14-2.73
		c-1.1-0.53-2.16-0.95-4.49-0.95c-2.07,0-3.59,0.18-4.8,0.46v12.46h2.93v-4.96H1860.09z M1860.18,396.28l1.5-0.2
		c1.76,0,2.71,0.81,2.71,1.96c0,1.28-1.28,1.87-2.91,1.87h-1.3L1860.18,396.28L1860.18,396.28z M1862.05,387.82
		c-7.22,0-12.95,5.64-12.95,12.55c0,7.09,5.72,12.72,12.95,12.72c7.31,0,12.86-5.64,12.86-12.72
		C1874.9,393.46,1869.36,387.82,1862.05,387.82 M1862.05,390.36c5.55,0,9.66,4.49,9.66,10.02c0,5.57-4.12,10.19-9.66,10.1
		c-5.55,0-9.75-4.54-9.75-10.1c0-5.53,4.21-10.02,9.67-10.02" class="st1"></path>
</g>
</svg>
